<?xml version="1.0" encoding="utf-8"?>
<!-- Generator: Adobe Illustrator 16.0.0, SVG Export Plug-In . SVG Version: 6.00 Build 0)  -->
<!DOCTYPE svg PUBLIC "-//W3C//DTD SVG 1.1//EN" "http://www.w3.org/Graphics/SVG/1.1/DTD/svg11.dtd">
<svg version="1.1" id="Layer_1" xmlns="http://www.w3.org/2000/svg" xmlns:xlink="http://www.w3.org/1999/xlink" x="0px" y="0px"
	 width="105.816px" height="26.22px" viewBox="0 0 105.816 26.22" enable-background="new 0 0 105.816 26.22" xml:space="preserve">
<g>
	<path fill-rule="evenodd" clip-rule="evenodd" fill="#FFFFFF" d="M24.211,0c0.074,0.173,0.246,0.104,0.37,0.138
		c2.185,0.603,3.491,2.572,3.471,4.458c-0.021,1.955-0.001,3.911-0.001,5.867c0,5.003,0,10.007-0.001,15.011
		c0,0.208,0.029,0.421-0.038,0.631c-0.242,0.017-0.408-0.134-0.586-0.231c-3.136-1.706-6.271-3.416-9.401-5.133
		c-0.303-0.166-0.604-0.238-0.951-0.238c-4.14,0.009-8.281,0.013-12.421,0.003C2.698,20.5,0.997,19.296,0.29,17.473
		C0.19,17.218,0.208,16.918,0,16.705C0,11.136,0,5.568,0,0C8.07,0,16.141,0,24.211,0z M5.769,5.833
		C5.685,5.941,5.721,6.068,5.721,6.186c-0.002,2.713-0.001,5.427-0.002,8.14c0,0.508-0.017,0.467,0.508,0.467
		c5.198-0.001,10.396,0,15.593-0.001c0.499,0,0.501-0.003,0.501-0.526c0.001-2.66,0.001-5.321-0.002-7.981
		c0-0.149,0.052-0.312-0.079-0.479c-0.167,0.082-0.341,0.158-0.507,0.248c-2.44,1.33-4.882,2.656-7.316,3.997
		c-0.273,0.15-0.471,0.171-0.761,0.011c-2.493-1.379-4.999-2.736-7.502-4.097C6.035,5.898,5.931,5.776,5.769,5.833z"/>
	<path fill-rule="evenodd" clip-rule="evenodd" fill="#FFFFFF" d="M76.018,26.22c0.097-0.771,0.024-1.544,0.042-2.316
		c0.012-0.497,0.003-0.497,0.479-0.562c2.457-0.335,4.107-2.214,4.112-4.699c0.005-3.346,0.002-6.691,0.001-10.038
		c-0.001-1.214-0.387-1.744-1.57-2.098c-0.229-0.068-0.25-0.19-0.249-0.38c0.005-0.704-0.001-1.409,0.003-2.113
		c0.003-0.398,0.009-0.405,0.408-0.406c2.254-0.002,4.508,0.004,6.762-0.008c0.306-0.001,0.41,0.094,0.376,0.388
		c-0.019,0.156-0.003,0.317-0.003,0.475c0,4.314,0.006,8.629-0.003,12.943c-0.006,2.499-0.909,4.635-2.703,6.375
		c-1.298,1.261-2.859,2.021-4.642,2.33c-0.096,0.017-0.219-0.029-0.266,0.109C77.85,26.22,76.934,26.22,76.018,26.22z"/>
	<path fill-rule="evenodd" clip-rule="evenodd" fill="#FFFFFF" d="M39.525,6.065c0.472-0.473,0.855-0.834,1.214-1.219
		c2.278-2.448,6.35-1.831,7.735,1.292c0.027,0.062,0.067,0.117,0.129,0.223c0.57-0.578,1.113-1.155,1.683-1.703
		c1.757-1.687,4.44-1.776,6.297-0.202c1.129,0.958,1.651,2.21,1.654,3.68c0.006,2.607,0.002,5.214,0.001,7.821
		c0,0.318-0.001,0.634,0.135,0.933c0.267,0.587,0.718,0.965,1.349,1.063c0.284,0.044,0.336,0.147,0.332,0.396
		c-0.012,0.722-0.013,1.444,0,2.166c0.005,0.241-0.05,0.346-0.318,0.34c-1.003-0.02-2.009,0.02-3.011-0.031
		c-2.102-0.106-4.005-1.979-4.185-4.079c-0.035-0.402-0.051-0.809-0.053-1.213c-0.005-1.867-0.008-3.734,0-5.602
		c0.003-0.732-0.274-1.305-0.908-1.673c-1.165-0.678-2.591,0.108-2.71,1.485c-0.014,0.158-0.006,0.317-0.006,0.476
		c0,3.241,0,6.482,0,9.723c0,0.124-0.006,0.247,0.001,0.37c0.011,0.194-0.053,0.306-0.268,0.284
		c-0.07-0.008-0.141-0.001-0.211-0.001c-1.585,0-3.171,0.001-4.756-0.001c-0.485,0-0.488-0.002-0.488-0.48
		c-0.001-3.347-0.001-6.693,0.001-10.04c0-0.301-0.008-0.598-0.116-0.884c-0.3-0.797-1.119-1.273-1.985-1.15
		c-0.812,0.115-1.463,0.826-1.504,1.665c-0.021,0.404-0.009,0.81-0.01,1.215c0,3.03,0,6.06,0,9.09c0,0.123-0.002,0.246-0.001,0.369
		c0.002,0.157-0.08,0.22-0.229,0.216c-0.088-0.002-0.176,0.001-0.264,0.001c-1.585,0-3.171,0.001-4.756-0.001
		c-0.473,0-0.479-0.004-0.479-0.446c-0.001-5.372-0.001-10.745,0-16.117c0-0.418,0.007-0.423,0.443-0.423
		c1.621-0.002,3.241-0.002,4.861,0c0.418,0,0.421,0.006,0.423,0.442C39.527,4.681,39.525,5.313,39.525,6.065z"/>
	<path fill-rule="evenodd" clip-rule="evenodd" fill="#FFFFFF" d="M94.549,6.07c0.536-0.534,0.975-0.986,1.431-1.42
		c1.725-1.636,4.326-1.767,6.176-0.289c1.17,0.935,1.754,2.184,1.763,3.678c0.015,2.642,0.004,5.284,0.005,7.925
		c0,0.228-0.017,0.457,0.054,0.681c0.231,0.74,0.723,1.196,1.489,1.319c0.202,0.032,0.266,0.096,0.264,0.292
		c-0.008,0.774-0.005,1.55-0.002,2.325c0,0.154-0.011,0.278-0.218,0.27c-1.229-0.048-2.47,0.135-3.687-0.121
		c-2.046-0.43-3.571-2.23-3.614-4.317c-0.044-2.095-0.018-4.191-0.016-6.287c0-0.302-0.017-0.601-0.11-0.886
		c-0.253-0.772-1-1.256-1.844-1.21c-0.789,0.042-1.456,0.626-1.63,1.416c-0.058,0.261-0.062,0.523-0.062,0.787
		c0.001,3.24,0.001,6.481,0.001,9.722c0,0.105-0.01,0.212,0.001,0.317c0.025,0.255-0.087,0.33-0.337,0.329
		c-1.69-0.01-3.381-0.01-5.072,0c-0.265,0.002-0.348-0.099-0.32-0.342c0.008-0.069,0.001-0.141,0.001-0.211
		c0-5.302,0-10.603,0-15.904c0-0.105,0.004-0.211,0.001-0.317c-0.005-0.154,0.067-0.226,0.221-0.22c0.07,0.002,0.142,0,0.212,0
		c1.62,0,3.24-0.001,4.86,0.001c0.426,0,0.43,0.005,0.433,0.433C94.551,4.673,94.549,5.306,94.549,6.07z"/>
	<path fill-rule="evenodd" clip-rule="evenodd" fill="#FFFFFF" d="M69.457,3.347c4.861,0.022,8.793,3.938,8.752,8.771
		c-0.043,5.183-4.303,8.778-8.847,8.74c-4.729-0.04-8.746-3.957-8.693-8.836C60.721,7.205,64.627,3.325,69.457,3.347z
		 M72.461,12.104c0.007-1.133-0.184-2.215-0.67-3.236c-0.252-0.531-0.577-1.008-1.033-1.386c-0.8-0.661-1.743-0.682-2.568-0.06
		c-0.521,0.393-0.884,0.913-1.135,1.5c-0.9,2.114-0.897,4.24,0.002,6.353c0.243,0.571,0.6,1.075,1.098,1.466
		c0.811,0.635,1.705,0.65,2.525,0.032c0.415-0.312,0.725-0.718,0.97-1.171C72.241,14.509,72.469,13.328,72.461,12.104z"/>
</g>
</svg>
